<?xml version="1.0" encoding="UTF-8"?>
<svg xmlns="http://www.w3.org/2000/svg" xmlns:xlink="http://www.w3.org/1999/xlink" width="1695px" height="1707px" viewBox="0 0 318 320" version="1.1">
<g id="surface1">
<path style=" stroke:none;fill-rule:nonzero;fill:rgb(0%,0%,0%);fill-opacity:1;" d="M 274.671875 38.5 C 273.496094 38.601562 270.96875 38.824219 269.042969 38.976562 C 258.164062 39.898438 250.332031 41.726562 246.503906 44.226562 C 243.503906 46.175781 239.875 50.523438 236.398438 56.398438 C 226.390625 73.175781 216.761719 101.449219 207.878906 140 C 207.15625 143.101562 206.453125 145.773438 206.328125 145.925781 C 205.953125 146.398438 140.636719 146.398438 140.011719 145.925781 C 139.613281 145.648438 140.238281 142.375 148.09375 103.125 C 152.769531 79.75 156.597656 60.550781 156.597656 60.449219 C 156.597656 60.351562 156.222656 60.25 155.796875 60.199219 C 155.023438 60.125 154.972656 60.074219 154.972656 59.125 C 154.972656 58.574219 155.046875 57.699219 155.148438 57.148438 L 155.324219 56.175781 L 153.898438 56.324219 C 153.121094 56.425781 150.167969 56.773438 147.34375 57.101562 C 128.78125 59.324219 106.765625 60.675781 98.835938 60.050781 C 90.53125 59.398438 84.453125 57.476562 79.226562 53.851562 C 76.949219 52.25 77 52.175781 77.800781 56.25 C 80.277344 69.074219 87.582031 78.949219 96.636719 81.726562 C 100.5625 82.925781 108.441406 82.976562 118.324219 81.875 C 120.175781 81.648438 121.851562 81.550781 122.050781 81.625 C 122.300781 81.726562 122.351562 82.074219 122.25 82.949219 C 122.101562 84.375 109.917969 145.648438 109.71875 145.949219 C 109.644531 146.074219 106.515625 146.25 102.765625 146.324219 C 80.226562 146.800781 71.445312 151.148438 64.414062 165.273438 C 62.613281 168.925781 61.113281 172.648438 61.339844 172.875 C 61.414062 172.949219 62.214844 172.648438 63.113281 172.226562 C 65.390625 171.175781 65.691406 171.375 64.867188 173.449219 C 64.515625 174.324219 64.289062 175.074219 64.339844 175.148438 C 64.414062 175.199219 65.867188 174.625 67.566406 173.851562 C 78.425781 168.875 87.878906 166.300781 98.035156 165.5 C 102.515625 165.175781 104.890625 165.175781 105.265625 165.550781 C 105.441406 165.726562 105.566406 166.074219 105.566406 166.351562 C 105.566406 166.875 104.890625 170.25 94.035156 224.75 C 85.628906 266.898438 85.105469 269.925781 85.804688 272.324219 C 85.980469 272.976562 86.628906 274.050781 87.378906 274.949219 C 88.105469 275.773438 88.882812 276.75 89.105469 277.074219 C 89.355469 277.425781 90.082031 277.949219 90.730469 278.273438 C 91.832031 278.824219 92.234375 278.875 95.433594 278.851562 C 99.585938 278.800781 103.714844 278.050781 108.441406 276.476562 C 112.171875 275.226562 117.824219 272.773438 117.824219 272.398438 C 117.824219 272.25 117.699219 271.726562 117.574219 271.25 C 117.074219 269.574219 116.574219 266.625 116.574219 265.324219 C 116.574219 262.574219 117.472656 257.226562 120.824219 240.375 C 122.753906 230.75 126.855469 210.101562 129.933594 194.5 C 134.886719 169.625 135.636719 166.074219 136.109375 165.675781 C 136.609375 165.273438 138.5625 165.25 169.382812 165.25 C 199.851562 165.25 202.152344 165.273438 202.300781 165.675781 C 202.476562 166.101562 202.351562 166.976562 201.25 173.875 C 199.777344 183.175781 199.148438 190.699219 198.949219 200.75 C 198.476562 227 203.179688 243.625 214.234375 254.625 C 221.289062 261.675781 227.992188 264.25 239.152344 264.25 C 251.058594 264.25 259.539062 261.574219 265.191406 256 C 268.792969 252.449219 271.34375 247 272.070312 241.25 L 272.246094 239.898438 L 271.570312 240.324219 C 270.546875 241.023438 270.34375 240.675781 270.546875 238.523438 C 270.621094 237.476562 270.769531 236.425781 270.820312 236.175781 C 271.046875 235.476562 270.496094 235.675781 267.96875 237.273438 C 263.390625 240.148438 258.1875 242.351562 253.984375 243.148438 C 249.632812 243.976562 243.851562 243.351562 240.351562 241.675781 C 232.996094 238.125 229.621094 231.648438 228.09375 218.25 C 227.742188 214.949219 227.742188 201.199219 228.117188 195 C 228.867188 182.851562 231.019531 166.773438 232.019531 165.773438 C 232.347656 165.449219 233.371094 165.351562 237.722656 165.226562 C 243.976562 165.023438 246.453125 164.523438 250.082031 162.648438 C 255.4375 159.875 258.886719 155.449219 261.140625 148.398438 C 261.914062 146.023438 262.789062 141.800781 262.589844 141.574219 C 262.515625 141.523438 262.164062 141.648438 261.816406 141.875 C 261.214844 142.273438 261.164062 142.273438 260.988281 141.875 C 260.914062 141.625 260.9375 140.523438 261.089844 139.398438 C 261.214844 138.273438 261.289062 137.300781 261.238281 137.199219 C 261.1875 137.101562 260.164062 137.601562 258.960938 138.300781 C 251.707031 142.5 245.152344 145.050781 239.527344 145.898438 C 236.222656 146.398438 235.773438 146.226562 235.972656 144.550781 C 236.472656 140.351562 240.476562 123.398438 243.277344 113.625 C 251.433594 85.074219 262.964844 61.25 276.574219 44.699219 C 277.449219 43.625 278.175781 42.699219 278.175781 42.625 C 278.175781 42.550781 277.449219 42.5 276.550781 42.5 C 274.523438 42.5 274.496094 42.324219 276.171875 40.226562 C 277.25 38.875 277.550781 38.175781 276.972656 38.273438 C 276.875 38.300781 275.847656 38.398438 274.671875 38.5 Z M 274.671875 38.5 "/>
</g>
</svg>
